<svg width="16" height="16" viewBox="0 0 16 16" fill="none" xmlns="http://www.w3.org/2000/svg">
    <path d="M15.4885 14.5735L11.6805 10.6129C12.6596 9.44901 13.1961 7.98455 13.1961 6.45999C13.1961 2.89801 10.2981 0 6.7361 0C3.17412 0 0.276106 2.89801 0.276106 6.45999C0.276106 10.022 3.17412 12.92 6.7361 12.92C8.07332 12.92 9.34762 12.5167 10.4371 11.751L14.2741 15.7416C14.4344 15.9082 14.6502 16 14.8813 16C15.1001 16 15.3077 15.9166 15.4652 15.7649C15.8 15.4428 15.8107 14.9085 15.4885 14.5735ZM6.7361 1.68522C9.36897 1.68522 11.5109 3.82713 11.5109 6.45999C11.5109 9.09286 9.36897 11.2348 6.7361 11.2348C4.10323 11.2348 1.96132 9.09286 1.96132 6.45999C1.96132 3.82713 4.10323 1.68522 6.7361 1.68522Z" fill="white"/>
</svg>