<svg width="16" height="16" viewBox="0 0 16 16" fill="none" xmlns="http://www.w3.org/2000/svg">
    <path d="M2.46967 12.4697C2.17678 12.7626 2.17678 13.2374 2.46967 13.5303C2.76256 13.8232 3.23744 13.8232 3.53033 13.5303L2.46967 12.4697ZM13.75 3C13.75 2.58579 13.4142 2.25 13 2.25L6.25 2.25C5.83579 2.25 5.5 2.58579 5.5 3C5.5 3.41421 5.83579 3.75 6.25 3.75H12.25V9.75C12.25 10.1642 12.5858 10.5 13 10.5C13.4142 10.5 13.75 10.1642 13.75 9.75L13.75 3ZM3.53033 13.5303L13.5303 3.53033L12.4697 2.46967L2.46967 12.4697L3.53033 13.5303Z" fill="white"/>
</svg>