<svg width="16" height="16" viewBox="0 0 16 16" fill="none" xmlns="http://www.w3.org/2000/svg">
    <g clip-path="url(#clip0)">
        <path d="M0.646446 11.6464C0.451184 11.8417 0.451184 12.1583 0.646446 12.3536L3.82843 15.5355C4.02369 15.7308 4.34027 15.7308 4.53553 15.5355C4.7308 15.3403 4.7308 15.0237 4.53553 14.8284L1.70711 12L4.53553 9.17157C4.7308 8.97631 4.7308 8.65973 4.53553 8.46447C4.34027 8.2692 4.02369 8.2692 3.82843 8.46447L0.646446 11.6464ZM15 11.5L1 11.5L1 12.5L15 12.5L15 11.5Z" fill="#E45D46"/>
        <path d="M15.3536 4.35355C15.5488 4.15829 15.5488 3.84171 15.3536 3.64645L12.1716 0.464466C11.9763 0.269204 11.6597 0.269204 11.4645 0.464466C11.2692 0.659728 11.2692 0.976311 11.4645 1.17157L14.2929 4L11.4645 6.82843C11.2692 7.02369 11.2692 7.34027 11.4645 7.53553C11.6597 7.7308 11.9763 7.7308 12.1716 7.53553L15.3536 4.35355ZM1 4.5L15 4.5V3.5L1 3.5L1 4.5Z" fill="#E45D46"/>
    </g>
    <defs>
        <clipPath id="clip0">
            <rect width="16" height="16" fill="white" transform="translate(0 16) rotate(-90)"/>
        </clipPath>
    </defs>
</svg>